<?xml version="1.0" encoding="UTF-8" standalone="no"?>
<svg
   height="779.37372"
   preserveAspectRatio="none"
   style="display:block"
   version="1.1"
   viewBox="0 0 1559.9644 1558.7474"
   width="779.98218"
   id="svg22"
   sodipodi:docname="icon_black.svg"
   inkscape:version="1.2.2 (b0a8486541, 2022-12-01)"
   xmlns:inkscape="http://www.inkscape.org/namespaces/inkscape"
   xmlns:sodipodi="http://sodipodi.sourceforge.net/DTD/sodipodi-0.dtd"
   xmlns="http://www.w3.org/2000/svg"
   xmlns:svg="http://www.w3.org/2000/svg">
  <defs
     id="defs26" />
  <sodipodi:namedview
     id="namedview24"
     pagecolor="#505050"
     bordercolor="#eeeeee"
     borderopacity="1"
     inkscape:showpageshadow="0"
     inkscape:pageopacity="0"
     inkscape:pagecheckerboard="0"
     inkscape:deskcolor="#505050"
     showgrid="false"
     inkscape:zoom="0.52216808"
     inkscape:cx="410.78727"
     inkscape:cy="212.57523"
     inkscape:window-width="2194"
     inkscape:window-height="1371"
     inkscape:window-x="0"
     inkscape:window-y="0"
     inkscape:window-maximized="0"
     inkscape:current-layer="svg22" />
  <path
     d="m 60.224295,484.12446 c 104.381005,0.423 212.697005,1.098 316.926005,0.023 -0.39,50.235 -0.255,100.473 0.404,150.706 46.599,1.346 95.375,0.83 141.974,0.489 0.356,66.014 0.329,132.025 -0.081,198.045 l -206.359,129.39 -155.226,97.36004 c -24.26,15.15 -58.062005,37.54 -82.541005,50.31 -6.368,-11.41 -15.899,-34.86 -20.889,-47.33 -74.532,-186.20004 -72.45,-394.31704 5.792,-578.99304 z"
     fill="#000000"
     id="path4" />
  <path
     d="m 1146.7643,90.881457 c 88.95,51.713003 171.58,113.463003 234.12,196.352003 -61.29,56.354 -125.68,113.048 -187.85,168.555 l -298.19,266.757 c 21.36,58.802 12.02,114.392 -37.92,155.042 -66.97,53.88 -170.807,21.83 -197.115,-60.41 -10.503,-32.49 -7.485,-67.842 8.374,-98.084 16.066,-30.224 43.555,-52.764 76.342,-62.595 32.709,-9.971 68.769,-5.17 98.739,10.802 20.49,-37.262 40.84,-78.107 60.84,-115.904 l 154.85,-294.396 c 28.95,-55.544 58.22,-110.918 87.81,-166.119003 z"
     fill="#000000"
     id="path6" />
  <path
     d="m 322.4263,1064.6275 c 0.239,0.17 26.637,39.22 29.991,43.71 66.183,90.47 161.49,155.39 269.902,183.85 31.579,8.48 56.162,12.28 88.11,16.89 0.606,29.14 0.15,59.89 0.188,89.17 l -0.025,157.67 c -55.669,-3.73 -113.102,-16.11 -166.28,-32.68 -144.305,-44.65 -284.639,-142.95 -376.786,-262.38 -15.998,-20.73 -35.068,-46.6 -48.058,-69.28 22.415,-15.38 55.994,-34.98 79.68,-49.54 z"
     fill="#000000"
     id="path8" />
  <path
     d="m 1311.9843,848.74746 245.79,-0.01 c -18.44,176.40004 -95.21,341.62004 -218.14,469.48004 -22.04,22.85 -43.84,41.72 -68.02,62.35 -18.65,15.81 -39.72,30.24 -59.81,44.17 -7.08,-8.19 -14.85,-18.08 -21.23,-26.81 -39.41,-53.93 -84.51,-105.84 -122.98,-160.24 8.74,-5.93 17.33,-12.07 25.78,-18.41 122.92,-92.84 197.25,-218.16 218.61,-370.53004 z"
     fill="#000000"
     id="path10" />
  <path
     d="m 751.8943,0.3024571 c 76.88,-1.766 143.63,3.982 218.13,23.0529999 33.01,8.452 61.85,16.37 93.33,30.415 -7.43,13.954 -15.07,30.659 -22.17,45.002 l -40.05,79.672003 -27.21,53.538 c -6.48,12.536 -13.99,25.902 -19.43,38.756 -45.76,-17.504 -109.45,-29.152 -158.2,-31.001 -62.96,-4.484 -147.707,9.342 -207.091,30.43 l -71.264,-141.379 c -11.28,-22.353 -25.4,-47.479003 -35.038,-70.059003 79.156,-36.654 182.302,-55.9809999 268.993,-58.4269999 z"
     fill="#000000"
     id="path12" />
  <path
     d="m 798.4943,1045.8775 c 3.24,0.75 4.75,1.04 6.94,3.68 20.48,24.64 40.23,49.95 60.11,75.07 l 129.34,165.96 82.97,108.15 c 15.13,19.49 43.83,54.46 55.23,73.71 -20.05,9.38 -39.76,19.12 -60.24,27.48 -93.39,37.79 -173.42,53.66 -274.56,58.82 z"
     fill="#000000"
     id="path14" />
  <path
     d="m 1436.1143,360.58446 c 5.24,5.145 28.63,48.318 33.32,57.12 55,103.187 87.98,223.714 90.53,341.133 l -182.91,-0.82 c -20.44,0.04 -40.88,-0.18 -61.32,-0.64 -3.42,-81.107 -25.45,-160.338 -64.39,-231.565 42.84,-42.036 91.15,-80.952 135.41,-121.631 15.65,-14.376 32.94,-30.37 49.36,-43.597 z"
     fill="#000000"
     id="path16" />
  <path
     d="m 401.1703,97.803457 c 2.211,2.219003 16.842,31.747003 19.512,37.177003 28.165,57.281 58.637,113.783 86.388,171.206 -13.175,8.27 -26.309,15.301 -39.529,24.137 -28.925,19.333 -52.455,40.213 -77.793,63.631 l -178.694,0.499 c -35.896,0 -71.793,-0.183 -107.687,-0.549 8.267,-16.535 29.463,-48.138 40.122,-63.278 67.114,-96.155 155.234,-175.773 257.681,-232.823003 z"
     fill="#000000"
     id="path18" />
  <metadata
     id="metadata20">
    <recraft-signature>{&quot;signed_by&quot;: &quot;recraft&quot;, &quot;signature_b64&quot;: &quot;c+XPg0XvKgDtPWhH0g4Jg5U4Y7abyR/pjWDu+0X+4gRusKCnAbDa/qm1Vg3MJ5CXKKbaqX8kYnr7NJxmPMamDw==&quot;, &quot;signing_algo&quot;: &quot;Ed25519&quot;, &quot;generation_timestamp&quot;: 1778263689, &quot;identifier&quot;: &quot;ce3c2375-7aeb-461a-a33b-2fa778d03409&quot;}</recraft-signature>
  </metadata>
</svg>
